<?xml version="1.0" encoding="UTF-8" standalone="no"?>
<svg width="70.521446" height="17.828236" viewBox="0 0 70.521446 17.828236" fill="none" version="1.1"
    id="svg71" xmlns="http://www.w3.org/2000/svg">
  <path
     fill-rule="evenodd"
     clip-rule="evenodd"
     d="m 59.4405,5.982135 c -0.7776,0 -1.2175,0.767 -0.7667,1.3369 l 3.6274,4.586 -4.4281,5.5888 c -0.1129,0.1425 -0.003,0.3344 0.1915,0.3344 h 3.1687 c 0.0808,0 0.1573,-0.0354 0.2041,-0.0946 l 2.7394,-3.4573 2.7344,3.4571 c 0.0469,0.0593 0.1234,0.0948 0.2043,0.0948 h 3.169 c 0.1944,0 0.3042,-0.1918 0.1917,-0.3342 l -4.4206,-5.589 3.6332,-4.5854 c 0.4515,-0.5699 0.0117,-1.3375 -0.7662,-1.3375 h -1.4119 c -0.323,0 -0.629,0.1418 -0.8164,0.3784 l -2.5143,3.1733 -2.5094,-3.1727 c -0.1874,-0.237 -0.4937,-0.379 -0.817,-0.379 z"
     fill="#1f1f1f"
     id="path55" />
  <path
     d="m 39.4922,0.947215 c 0,-0.49068 0.4167,-0.88846 0.9309,-0.88846 h 1.2412 c 0.5141,0 0.9308,0.39778 0.9308,0.88846 v 16.65862 c 0,0.1227 -0.1041,0.2222 -0.2327,0.2222 h -2.6375 c -0.1285,0 -0.2327,-0.0995 -0.2327,-0.2222 z"
     fill="#1f1f1f"
     id="path57" />
  <path
     fill-rule="evenodd"
     clip-rule="evenodd"
     d="m 34.7508,3.020335 h 0.1573 1.1012 c 0.5213,0 0.9439,-0.3978 0.9439,-0.88851 v -1.18461 c 0,-0.49069 -0.4226,-0.88846 -0.9439,-0.88846 h -2.0451 c -0.0536,0 -0.1062,0.0042 -0.1574,0.01228 v -0.01228 c -1.7376,0 -3.1463,1.32592 -3.1463,2.96158 v 2.9615 h -0.9439 c -0.5213,0 -0.9439,0.3978 -0.9439,0.8885 v 1.1846 c 0,0.4402 0.3401,0.8057 0.7866,0.8762 v 0.0122 h 0.1573 c 0.5213,0 0.9439,0.3978 0.9439,0.8885 v 0.074 7.7 c 0,0.1227 0.1056,0.2222 0.236,0.2222 h 2.6744 c 0.1303,0 0.2359,-0.0995 0.2359,-0.2222 v -7.7 -0.074 c 0,-0.4907 0.4226,-0.8885 0.944,-0.8885 h 0.1573 1.1012 c 0.5213,0 0.9439,-0.3977 0.9439,-0.8884 v -1.1846 c 0,-0.4907 -0.4226,-0.8885 -0.9439,-0.8885 h -2.2025 v -1.999 -0.0741 c 0,-0.4907 0.4226,-0.8884 0.944,-0.8884 z"
     fill="#1f1f1f"
     id="path59" />
  <path
     fill-rule="evenodd"
     clip-rule="evenodd"
     d="m 51.1989,15.021735 c 1.157,0 1.8483,-0.319 2.3726,-0.664 0.0716,-0.0472 0.1644,-0.0548 0.2423,-0.0177 l 1.9441,0.9278 c 0.2305,0.11 0.3256,0.3795 0.1712,0.5763 -0.8016,1.0219 -2.5872,1.8492 -4.7302,1.8492 -3.3496,0 -6.0649,-2.5916 -6.0649,-5.7885 0,-3.1969 2.7153,-5.7885 6.0649,-5.7885 3.3495,0 6.0649,2.5916 6.0649,5.7885 0,0.2907 -0.0225,0.5764 -0.0658,0.8555 -0.0165,0.1065 -0.1137,0.1834 -0.2264,0.1834 h -8.8618 l 0.0952,0.2079 c 0.5038,1.1005 1.7498,1.8701 2.9939,1.8701 z m -2.9939,-4.3637 -0.0952,0.2078 h 6.1781 l -0.0951,-0.2078 c -0.5038,-1.1005 -1.6545,-1.8701 -2.9939,-1.8701 -1.3394,0 -2.4901,0.7696 -2.9939,1.8701 z"
     fill="#1f1f1f"
     id="path65" />
  <path
     fill-rule="evenodd"
     clip-rule="evenodd"
     d="m 11.4809,0.058755 c 0.5141,0 0.9309,0.39778 0.9309,0.88846 v 1.18462 c 0,0.4907 -0.4168,0.8885 -0.9309,0.8885 h -5.2750001 -2.0169 -0.1552 -2e-4 c -10e-5,0 -3e-4,0 -4e-4,0 -0.5138,3e-4 -0.9303,0.3979 -0.9303,0.8884 v 0.0741 3.4798 h 5.2751 c 0.5141,0 0.9309,0.3977 0.9309,0.8884 v 1.1846 c 0,0.4907 -0.4168,0.8885 -0.9309,0.8885 h -4.189 -0.1552 c -0.5141,0 -0.9309,0.3978 -0.9309,0.8885 v 0.074 6.2192 c 0,0.1227 -0.1042,0.2222 -0.2327,0.2222 H 0.2327 C 0.1042,17.828035 0,17.728535 0,17.605835 v -8.0702 -1.1846 -5.2567 c 0,-0.0249 0.001,-0.0496 0.0032,-0.074 H 0 c 0,-1.63566 1.3891999,-2.96158 3.1028999,-2.96158 0.0675,0 0.1344,0.0021 0.2007,0.0061 0.036,-0.004 0.0725,-0.0061 0.1096,-0.0061 z"
     fill="#1f1f1f"
     id="path67" />
  <path
     fill-rule="evenodd"
     clip-rule="evenodd"
     d="m 20.5923,6.722435 v 1.4808 c 0,0.4087 -0.3461,0.7404 -0.7726,0.7404 h -1.0818 c 0,0 -0.0089,-2e-4 -0.026,10e-5 -1.6967,0.0114 -3.0684,1.3329 -3.0684,2.9614 v 0.6664 h 4e-4 c -3e-4,0.0245 -4e-4,0.0492 -4e-4,0.074 v 4.9606 c 0,0.1227 -0.1038,0.2221 -0.2318,0.2221 h -2.6271 c -0.128,0 -0.2318,-0.0994 -0.2318,-0.2221 v -9.7731 c 0,-1.0225 0.8646,-1.8509 1.9317,-1.8509 h 1.159 v 1.1105 c 0.768,-1.0047 2.2793,-1.1105 2.7429,-1.1105 h 1.4333 c 0.4265,0 0.7726,0.3316 0.7726,0.7403 z"
     fill="#1f1f1f"
     id="path69" />
</svg>
